<?xml version="1.0" encoding="UTF-8" standalone="no"?>
<!DOCTYPE svg PUBLIC "-//W3C//DTD SVG 1.1//EN" "http://www.w3.org/Graphics/SVG/1.1/DTD/svg11.dtd">
<svg xmlns="http://www.w3.org/2000/svg" version="1.1" viewBox="0 0 512 512">
<path fill="#000000" d="
  M 71.31 0.00
  L 440.81 0.00
  C 480.12 3.08 509.65 32.64 512.00 72.06
  L 512.00 440.31
  C 509.26 479.81 479.51 509.59 439.94 512.00
  L 72.19 512.00
  C 32.48 509.83 3.16 480.03 0.00 440.44
  L 0.00 71.19
  C 3.13 32.15 32.18 2.73 71.31 0.00
  Z
  M 63.17 21.37
  C 37.72 26.91 20.07 49.76 20.06 75.75
  Q 19.99 255.88 20.03 436.00
  C 20.04 463.15 38.79 486.28 65.31 491.01
  Q 70.86 492.00 85.25 492.00
  Q 258.43 492.01 431.62 491.99
  Q 441.26 491.99 446.21 491.16
  C 468.81 487.36 486.28 469.65 490.71 447.90
  Q 492.01 441.52 492.01 427.99
  Q 492.00 255.77 492.00 83.55
  Q 492.00 69.87 490.66 63.66
  C 485.09 37.71 462.47 20.00 436.00 20.00
  Q 259.53 19.99 83.05 20.01
  Q 69.39 20.01 63.17 21.37
  Z"
/>
<path fill="#000000" d="
  M 378.46 182.00
  C 385.37 251.54 336.34 294.18 270.30 296.08
  Q 243.96 296.84 203.08 296.42
  A 0.58 0.58 0.0 0 0 202.50 297.00
  L 202.50 412.09
  A 0.41 0.40 -90.0 0 1 202.10 412.50
  L 139.00 412.50
  A 0.50 0.50 0.0 0 1 138.50 412.00
  L 138.50 93.03
  A 0.48 0.48 0.0 0 1 138.98 92.55
  Q 239.16 92.34 266.92 92.56
  C 321.72 93.00 372.64 123.49 378.46 182.00
  Z
  M 287.68 241.93
  C 311.64 231.40 318.96 203.41 313.47 180.02
  C 307.49 154.54 287.32 142.08 262.00 142.03
  Q 232.43 141.96 202.94 142.02
  A 0.44 0.44 0.0 0 0 202.50 142.46
  L 202.50 246.54
  A 0.45 0.45 0.0 0 0 202.94 246.99
  Q 232.27 247.04 261.49 247.05
  Q 276.02 247.06 287.68 241.93
  Z"
/>
</svg>
